# xmcd CD database file
#
# Track frame offsets:
#	150
#	22685
#	56477
#	109294
#	186870
#	232074
#	246031
#	261336
#	287958
#
# Disc length: 4198 seconds
#
# Revision: 1
# Processed by: cddbd v1.5.2PL0 Copyright (c) Steve Scherf et al.
# Submitted via: CDex 1.70beta2
#
DISCID=7e106409
DTITLE=The Allman Brothers Band - Live at Morrison, CO - Sept  5, 2009 - Disc 2
DYEAR=2009
DGENRE=Blues
TTITLE0=Into The Mystic
TTITLE1=Come On In My Kitchen
TTITLE2=Dreams
TTITLE3=In Memory of Elizabeth Reed
TTITLE4=JaMaBuBu
TTITLE5=In Memory of Elizabeth Reed - Reprise
TTITLE6=Crowd Noise
TTITLE7=Melissa
TTITLE8=One Way Out
EXTD=YEAR: 2009
EXTT0=
EXTT1=
EXTT2=
EXTT3=
EXTT4=
EXTT5=
EXTT6=
EXTT7=
EXTT8=
PLAYORDER=
